<svg xmlns="http://www.w3.org/2000/svg" version="1.1" xmlns:xlink="http://www.w3.org/1999/xlink" xmlns:svgjs="http://svgjs.dev/svgjs" width="1440" height="560" preserveAspectRatio="none" viewBox="0 0 1440 560"><g mask="url(&quot;#SvgjsMask1165&quot;)" fill="none"><rect width="1440" height="560" x="0" y="0" fill="rgba(24, 106, 59, 1)"></rect><path d="M0,576.401C107.973,575.984,195.272,500.718,294.631,458.454C417.642,406.129,590.661,416.432,653.475,298.432C715.614,181.701,615.964,44.279,583.324,-83.869C554.421,-197.344,555.178,-326.431,473.056,-409.905C392.212,-492.079,265.178,-494.49,153.046,-521.227C46.915,-546.533,-57.506,-580.546,-165.033,-562.05C-280.834,-542.131,-388.433,-490.664,-476.546,-412.929C-573.324,-327.55,-669.437,-226.619,-689.717,-99.166C-710.084,28.835,-659.28,161.01,-584.739,267.041C-516.723,363.79,-400.636,405.432,-296.099,460.738C-200.501,511.315,-108.152,576.819,0,576.401" fill="#104526"></path><path d="M1440 1199.423C1559.6 1198.617 1662.594 1127.463 1765.327 1066.219 1871.464 1002.946 1985.038 944.072 2047.339 837.3620000000001 2112.759 725.31 2170.61 581.055 2117.768 462.552 2064.0789999999997 342.15 1883.657 349.324 1788.863 257.709 1707.057 178.64600000000002 1714.593 23.249000000000024 1612.109-26.149999999999977 1509.379-75.668 1389.473-16.663999999999987 1279.089 11.989000000000033 1165.195 41.553 1043.496 61.295000000000016 959.15 143.341 871.633 228.473 832.704 349.506 808.989 469.274 784.289 594.014 763.441 729.281 820.638 842.8530000000001 877.214 955.192 1002.835 1007.8679999999999 1111.842 1070.624 1215.786 1130.4650000000001 1320.064 1200.231 1440 1199.423" fill="#208f50"></path></g><defs><mask id="SvgjsMask1165"><rect width="1440" height="560" fill="#ffffff"></rect></mask></defs></svg>