<svg xmlns="http://www.w3.org/2000/svg" version="1.1" xmlns:xlink="http://www.w3.org/1999/xlink" xmlns:svgjs="http://svgjs.dev/svgjs" width="1440" height="560" preserveAspectRatio="none" viewBox="0 0 1440 560"><g mask="url(&quot;#SvgjsMask1130&quot;)" fill="none"><rect width="1440" height="560" x="0" y="0" fill="rgba(15, 106, 189, 1)"></rect><path d="M0,444.302C81.53,437.691,151.375,382.446,207.604,323.039C256.157,271.741,255.631,193.638,293.615,134.089C340.623,60.393,446.44,21.469,455.426,-65.48C464.374,-152.061,409.956,-244.078,337.714,-292.631C267.903,-339.55,175.08,-305.264,91.12,-310.327C28.338,-314.113,-30.772,-322.316,-93.56,-318.637C-174.534,-313.892,-270.435,-341.071,-329.681,-285.67C-388.382,-230.778,-365.875,-133.795,-376.431,-54.123C-386.854,24.546,-417.669,103.844,-391.201,178.656C-363.823,256.042,-298.339,312.442,-230.43,358.556C-161.227,405.548,-83.376,451.062,0,444.302" fill="#0a457b"></path><path d="M1440 1098.397C1536.881 1077.5990000000002 1608.068 1004.749 1690.173 949.277 1770.106 895.2719999999999 1858.173 854.742 1915.4859999999999 777.1469999999999 1981.9450000000002 687.169 2056.232 584.403 2041.588 473.505 2026.9279999999999 362.485 1920.437 291.454 1840.935 212.58800000000002 1767.146 139.39 1691.413 70.58999999999997 1595.369 30.860000000000014 1491.142-12.254000000000019 1370.79-71.65599999999995 1268.456-24.224000000000046 1165.307 23.586000000000013 1171.522 176.93400000000003 1096.3 262.182 1019.989 348.66499999999996 847.382 358.273 830.298 472.33799999999997 813.245 586.191 974.681 645.947 1023.184 750.354 1071.19 853.69 1022.288 1000.848 1109.75 1073.879 1196.233 1146.0929999999998 1329.842 1122.045 1440 1098.397" fill="#268eee"></path></g><defs><mask id="SvgjsMask1130"><rect width="1440" height="560" fill="#ffffff"></rect></mask></defs></svg>